
<svg width="408px" height="93px" viewBox="0 0 408 93" version="1.1" xmlns="http://www.w3.org/2000/svg" xmlns:xlink="http://www.w3.org/1999/xlink">
    <g id="Page-3" stroke="none" stroke-width="1" fill="none" fill-rule="evenodd">
        <g id="Desktop-Copy-4" transform="translate(-313.000000, -189.000000)">
            <g id="Group-3" transform="translate(299.000000, 176.000000)">
                <text id="R00T-MAKER-1.0" font-family="Menlo-Bold, Menlo" font-size="40" font-weight="bold" fill="#221E16">
                    <tspan x="87.0848749" y="75.0928237">R00T MAKER 1.0</tspan>
                </text>
                <path d="M58,36.1873789 C58,37.684196 56.8135315,38.8931636 55.3445706,38.8931636 L44.9488469,38.8931636 C43.7058799,47.298367 41.8414295,55.8187102 41.1634475,57.1428176 C39.9204806,59.4456131 37.8300361,61 34.4966247,61 C31.1632133,61 29.1292674,59.4456131 27.8863004,57.1428176 C27.1518199,55.8187102 25.343868,47.298367 24.100901,38.8931636 L13.6486789,38.8931636 C12.6882044,38.8931636 11.7842284,38.3750346 11.3322404,37.5114863 C10.8802524,36.647938 10.8802524,35.61168 11.3887389,34.7481317 C19.5245227,21.5646277 32.1801863,10.1082203 32.7451713,9.64766122 C33.7621442,8.78411293 35.2311052,8.78411293 36.1915797,9.64766122 C36.7565647,10.1082203 49.2427328,21.3919181 57.3785165,34.4602823 C57.774006,34.9208414 58,35.5541102 58,36.1873789 Z" id="u" fill="#89F663" fill-rule="nonzero" transform="translate(34.500000, 35.000000) rotate(37.000000) translate(-34.500000, -35.000000) "></path>
                <path d="M57.6112611,84.2228366 C49.4754773,97.3917611 36.7633152,108.893005 36.2548287,109.353055 C35.2378558,110.215648 33.7688948,110.215648 32.8084203,109.353055 C32.2434353,108.893005 19.7572672,97.5642798 11.6214835,84.5103677 C11.225994,84.0503179 11,83.4752557 11,82.7851811 C11,81.2900194 12.1864685,80.0823887 13.6554294,80.0823887 L24.0511531,80.0823887 C25.2941201,71.6864805 27.1585705,63.1755599 27.8365525,61.8529168 C29.0795194,59.552668 31.1699639,58 34.5033753,58 C37.7802882,58 39.8707326,59.552668 41.1136996,61.8529168 C41.8481801,63.1755599 43.656132,71.6864805 44.899099,80.0823887 L55.3513211,80.0823887 C56.3117956,80.0823887 57.2157716,80.5999447 57.6677596,81.462538 C58.1197476,82.3251313 58.1197476,83.3602433 57.6112611,84.2228366 Z" id="d" fill="#F32B2B" fill-rule="nonzero" transform="translate(34.500000, 84.000000) rotate(37.000000) translate(-34.500000, -84.000000) "></path>
            </g>
        </g>
    </g>
</svg>
